<svg width="22" height="18" viewBox="0 0 22 18" fill="none" xmlns="http://www.w3.org/2000/svg">
<path d="M8.74508 14.2277L7.20336 15.8052C5.80877 17.2304 3.53899 17.2304 2.1468 15.8052C0.753238 14.3792 0.753238 12.0575 2.1468 10.6337L6.5468 6.13367C7.9414 4.70843 10.2112 4.70843 11.6034 6.13367C12.855 7.41441 12.998 9.46929 11.9364 10.8833C11.7538 11.1316 11.8026 11.4844 12.0455 11.6708C12.2878 11.8575 12.6333 11.8081 12.8155 11.5592C14.2046 9.67024 14.0182 6.98185 12.3813 5.30841C10.5581 3.44372 7.59287 3.44478 5.76756 5.30841L1.36718 9.83667C-0.45573 11.7014 -0.45573 14.7339 1.36718 16.6007C2.2788 17.5331 3.47986 17.9954 4.67749 17.9954C5.87511 17.9954 7.06896 17.5324 7.98058 16.6007L9.5223 15.0233C9.73722 14.8035 9.73722 14.4474 9.5223 14.2277C9.30883 14.0097 8.95821 14.0097 8.74508 14.2277ZM20.632 1.39812C18.8087 -0.466567 15.8435 -0.465513 14.0182 1.39812L12.4765 2.97558C12.2616 3.19531 12.2616 3.55144 12.4765 3.77117C12.6913 3.99089 13.0396 3.99089 13.2544 3.77117L14.7961 2.19371C16.1907 0.768472 18.4605 0.768472 19.8527 2.19371C21.2462 3.61964 21.2462 5.94136 19.8527 7.36519L15.4527 11.8652C14.0581 13.2904 11.7883 13.2904 10.3961 11.8652C9.14383 10.5855 9.0029 8.53238 10.0651 7.08746C10.2478 6.83911 10.1989 6.48628 9.95605 6.29996C9.71102 6.11363 9.36727 6.16285 9.18508 6.41246C7.79633 8.30035 7.98196 10.9898 9.61821 12.6632C10.5298 13.5956 11.7275 14.0618 12.9247 14.0618C14.122 14.0618 15.3196 13.5952 16.2313 12.6632L20.6313 8.16324C22.4573 6.29644 22.4573 3.26316 20.632 1.39812Z" fill="black"/>
</svg>
